<?xml version="1.0" encoding="UTF-8" standalone="no"?>
<!DOCTYPE svg PUBLIC "-//W3C//DTD SVG 1.1//EN"
 "http://www.w3.org/Graphics/SVG/1.1/DTD/svg11.dtd">
<!-- Generated by graphviz version 14.1.5 (20260411.2331)
 -->
<!-- Title: tm Pages: 1 -->
<svg width="741pt" height="547pt"
 viewBox="0.00 0.00 741.00 547.00" xmlns="http://www.w3.org/2000/svg" xmlns:xlink="http://www.w3.org/1999/xlink">
<g id="graph0" class="graph" transform="scale(1 1) rotate(0) translate(4 543.23)">
<title>tm</title>
<polygon fill="white" stroke="none" points="-4,4 -4,-543.23 737.5,-543.23 737.5,4 -4,4"/>
<g id="clust1" class="cluster">
<title>cluster_boundary_DataZoneBackendStorage_579e9aae81</title>
<polygon fill="none" stroke="#ee2c2c" stroke-dasharray="5,2" points="48.25,-439.23 48.25,-531.23 370.25,-531.23 370.25,-439.23 48.25,-439.23"/>
<text xml:space="preserve" text-anchor="start" x="141.75" y="-518.73" font-family="Arial" font-style="italic" font-size="10.00">Data Zone (Backend\nStorage)</text>
</g>
<g id="clust2" class="cluster">
<title>cluster_boundary_WebZoneAPIServer_88f2d9c06f</title>
<polygon fill="none" stroke="#ee2c2c" stroke-dasharray="5,2" points="74.25,-8 74.25,-392.73 260.25,-392.73 260.25,-8 74.25,-8"/>
<text xml:space="preserve" text-anchor="start" x="114" y="-380.23" font-family="Arial" font-style="italic" font-size="10.00">Web Zone (API\nServer)</text>
</g>
<!-- datastore_StockDB_f8af758679 -->
<g id="node1" class="node">
<title>datastore_StockDB_f8af758679</title>
<image xlink:href="C:\Users\blueb\AppData\Local\Python\pythoncore-3.14-64\Lib\site-packages\pytm\images\datastore_black.png" width="49.6px" height="36px" preserveAspectRatio="xMinYMin meet" x="58.45" y="-483.226"/>
<text xml:space="preserve" text-anchor="middle" x="28.12" y="-485.68" font-family="Arial" font-size="14.00">Stock DB</text>
</g>
<!-- process_PlanningDataMonitor_f2eb7a3ff7 -->
<g id="node4" class="node">
<title>process_PlanningDataMonitor_f2eb7a3ff7</title>
<ellipse fill="none" stroke="black" cx="144.25" cy="-282.76" rx="61.96" ry="61.96"/>
<text xml:space="preserve" text-anchor="middle" x="144.25" y="-285.21" font-family="Arial" font-size="14.00">Planning Data</text>
<text xml:space="preserve" text-anchor="middle" x="144.25" y="-269.46" font-family="Arial" font-size="14.00">Monitor</text>
</g>
<!-- datastore_StockDB_f8af758679&#45;&gt;process_PlanningDataMonitor_f2eb7a3ff7 -->
<g id="edge2" class="edge">
<title>datastore_StockDB_f8af758679&#45;&gt;process_PlanningDataMonitor_f2eb7a3ff7</title>
<path fill="none" stroke="black" d="M58.31,-447.51C52.63,-442.37 47.36,-436.21 44.25,-429.23 39.09,-417.66 39.86,-412.61 44.25,-400.73 53.68,-375.18 71.45,-351.44 89.43,-332.11"/>
<polygon fill="black" stroke="black" points="91.94,-334.55 96.35,-324.92 86.89,-329.7 91.94,-334.55"/>
<text xml:space="preserve" text-anchor="middle" x="81.75" y="-417.83" font-family="Arial" font-size="12.00">Query Current</text>
<text xml:space="preserve" text-anchor="middle" x="81.75" y="-403.58" font-family="Arial" font-size="12.00">Stock</text>
</g>
<!-- datastore_ReservationsDB_2c440ebe53 -->
<g id="node2" class="node">
<title>datastore_ReservationsDB_2c440ebe53</title>
<image xlink:href="C:\Users\blueb\AppData\Local\Python\pythoncore-3.14-64\Lib\site-packages\pytm\images\datastore_black.png" width="49.6px" height="36px" preserveAspectRatio="xMinYMin meet" x="184.45" y="-483.226"/>
<text xml:space="preserve" text-anchor="middle" x="131.62" y="-485.68" font-family="Arial" font-size="14.00">Reservations DB</text>
</g>
<!-- datastore_ReservationsDB_2c440ebe53&#45;&gt;process_PlanningDataMonitor_f2eb7a3ff7 -->
<g id="edge3" class="edge">
<title>datastore_ReservationsDB_2c440ebe53&#45;&gt;process_PlanningDataMonitor_f2eb7a3ff7</title>
<path fill="none" stroke="black" d="M202.99,-447.51C200.84,-441.72 198.43,-435.19 196.25,-429.23 187.09,-404.09 177.18,-376.46 168.48,-352.1"/>
<polygon fill="black" stroke="black" points="171.87,-351.18 165.22,-342.94 165.28,-353.53 171.87,-351.18"/>
<text xml:space="preserve" text-anchor="middle" x="245.75" y="-417.83" font-family="Arial" font-size="12.00">Select Last Weeks</text>
<text xml:space="preserve" text-anchor="middle" x="245.75" y="-403.58" font-family="Arial" font-size="12.00">Consumption</text>
</g>
<!-- datastore_MealDatabase_0291419f72 -->
<g id="node3" class="node">
<title>datastore_MealDatabase_0291419f72</title>
<image xlink:href="C:\Users\blueb\AppData\Local\Python\pythoncore-3.14-64\Lib\site-packages\pytm\images\datastore_black.png" width="49.6px" height="36px" preserveAspectRatio="xMinYMin meet" x="310.45" y="-483.226"/>
<text xml:space="preserve" text-anchor="middle" x="262.5" y="-485.68" font-family="Arial" font-size="14.00">Meal Database</text>
</g>
<!-- process_MealPlanningLogic_d2006ce1bb -->
<g id="node5" class="node">
<title>process_MealPlanningLogic_d2006ce1bb</title>
<ellipse fill="none" stroke="black" cx="189.25" cy="-79.02" rx="63.02" ry="63.02"/>
<text xml:space="preserve" text-anchor="middle" x="189.25" y="-81.47" font-family="Arial" font-size="14.00">Meal Planning</text>
<text xml:space="preserve" text-anchor="middle" x="189.25" y="-65.72" font-family="Arial" font-size="14.00">Logic</text>
</g>
<!-- process_PlanningDataMonitor_f2eb7a3ff7&#45;&gt;process_MealPlanningLogic_d2006ce1bb -->
<g id="edge4" class="edge">
<title>process_PlanningDataMonitor_f2eb7a3ff7&#45;&gt;process_MealPlanningLogic_d2006ce1bb</title>
<path fill="none" stroke="black" d="M140.69,-220.65C140.95,-201.03 142.74,-179.39 147.75,-160.05 149.1,-154.83 150.84,-149.57 152.84,-144.37"/>
<polygon fill="black" stroke="black" points="156.04,-145.79 156.68,-135.21 149.58,-143.08 156.04,-145.79"/>
<text xml:space="preserve" text-anchor="middle" x="196.5" y="-191.4" font-family="Arial" font-size="12.00">Planning Data</text>
<text xml:space="preserve" text-anchor="middle" x="196.5" y="-177.15" font-family="Arial" font-size="12.00">(Reservation</text>
<text xml:space="preserve" text-anchor="middle" x="196.5" y="-162.9" font-family="Arial" font-size="12.00">History and Stock)</text>
</g>
<!-- process_MealPlanningLogic_d2006ce1bb&#45;&gt;datastore_MealDatabase_0291419f72 -->
<g id="edge6" class="edge">
<title>process_MealPlanningLogic_d2006ce1bb&#45;&gt;datastore_MealDatabase_0291419f72</title>
<path fill="none" stroke="black" d="M234.04,-123.78C243.47,-134.88 252.58,-147.29 259.25,-160.05 308.25,-253.77 326.65,-380.46 332.67,-436.07"/>
<polygon fill="black" stroke="black" points="329.18,-436.33 333.68,-445.92 336.15,-435.62 329.18,-436.33"/>
<text xml:space="preserve" text-anchor="middle" x="370.22" y="-285.61" font-family="Arial" font-size="12.00">Insert New Meal</text>
<text xml:space="preserve" text-anchor="middle" x="370.22" y="-271.36" font-family="Arial" font-size="12.00">Records</text>
</g>
<!-- actor_Dietitian_acf3059e70 -->
<g id="node6" class="node">
<title>actor_Dietitian_acf3059e70</title>
<polygon fill="none" stroke="black" points="604.07,-308.58 552.43,-308.58 552.43,-256.95 604.07,-256.95 604.07,-308.58"/>
<text xml:space="preserve" text-anchor="middle" x="578.25" y="-277.34" font-family="Arial" font-size="14.00">Dietitian</text>
</g>
<!-- process_MealPlanningLogic_d2006ce1bb&#45;&gt;actor_Dietitian_acf3059e70 -->
<g id="edge8" class="edge">
<title>process_MealPlanningLogic_d2006ce1bb&#45;&gt;actor_Dietitian_acf3059e70</title>
<path fill="none" stroke="black" d="M245.45,-107.94C273.79,-122.58 308.4,-141.33 338.25,-160.05 365.69,-177.25 368.33,-188.24 397.25,-202.8 420.98,-214.75 429.59,-210.91 454.25,-220.8 484.64,-232.99 517.88,-249.51 542.28,-262.28"/>
<polygon fill="black" stroke="black" points="540.35,-265.22 550.83,-266.79 543.62,-259.03 540.35,-265.22"/>
<text xml:space="preserve" text-anchor="middle" x="440.75" y="-184.27" font-family="Arial" font-size="12.00">Menu Published</text>
<text xml:space="preserve" text-anchor="middle" x="440.75" y="-170.02" font-family="Arial" font-size="12.00">Confirmation</text>
</g>
<!-- actor_Dietitian_acf3059e70&#45;&gt;process_PlanningDataMonitor_f2eb7a3ff7 -->
<g id="edge1" class="edge">
<title>actor_Dietitian_acf3059e70&#45;&gt;process_PlanningDataMonitor_f2eb7a3ff7</title>
<path fill="none" stroke="black" d="M565.15,-308.95C549.36,-337.23 519.92,-380.69 480.12,-399.19 391.48,-440.41 350.15,-431.14 260.25,-392.73 233.45,-381.28 209.11,-360.71 189.73,-340.44"/>
<polygon fill="black" stroke="black" points="192.4,-338.17 183.04,-333.21 187.27,-342.93 192.4,-338.17"/>
<text xml:space="preserve" text-anchor="middle" x="436.25" y="-417.83" font-family="Arial" font-size="12.00">Request Weekly</text>
<text xml:space="preserve" text-anchor="middle" x="436.25" y="-403.58" font-family="Arial" font-size="12.00">Data</text>
</g>
<!-- actor_Dietitian_acf3059e70&#45;&gt;process_MealPlanningLogic_d2006ce1bb -->
<g id="edge5" class="edge">
<title>actor_Dietitian_acf3059e70&#45;&gt;process_MealPlanningLogic_d2006ce1bb</title>
<path fill="none" stroke="black" d="M569.15,-256.51C557.81,-228.66 535.73,-184.53 502.25,-160.05 431.96,-108.64 331.79,-90.15 263.85,-83.57"/>
<polygon fill="black" stroke="black" points="264.17,-80.08 253.9,-82.67 263.55,-87.05 264.17,-80.08"/>
<text xml:space="preserve" text-anchor="middle" x="586.45" y="-184.27" font-family="Arial" font-size="12.00">Submit New Meal</text>
<text xml:space="preserve" text-anchor="middle" x="586.45" y="-170.02" font-family="Arial" font-size="12.00">Details</text>
</g>
<!-- actor_Dietitian_acf3059e70&#45;&gt;process_MealPlanningLogic_d2006ce1bb -->
<g id="edge7" class="edge">
<title>actor_Dietitian_acf3059e70&#45;&gt;process_MealPlanningLogic_d2006ce1bb</title>
<path fill="none" stroke="black" d="M604.42,-262.4C635.21,-237.29 678.86,-192.85 651.25,-160.05 602.61,-102.26 381.73,-86.2 263.87,-81.74"/>
<polygon fill="black" stroke="black" points="264.08,-78.25 253.96,-81.39 263.83,-85.24 264.08,-78.25"/>
<text xml:space="preserve" text-anchor="middle" x="696.75" y="-177.15" font-family="Arial" font-size="12.00">Publish Menu</text>
</g>
</g>
</svg>
