<?xml version="1.0" encoding="UTF-8" standalone="no"?>
<!DOCTYPE svg PUBLIC "-//W3C//DTD SVG 1.1//EN"
 "http://www.w3.org/Graphics/SVG/1.1/DTD/svg11.dtd">
<!-- Generated by graphviz version 14.1.5 (20260411.2331)
 -->
<!-- Title: tm Pages: 1 -->
<svg width="777pt" height="599pt"
 viewBox="0.00 0.00 777.00 599.00" xmlns="http://www.w3.org/2000/svg" xmlns:xlink="http://www.w3.org/1999/xlink">
<g id="graph0" class="graph" transform="scale(1 1) rotate(0) translate(4 594.64)">
<title>tm</title>
<polygon fill="white" stroke="none" points="-4,4 -4,-594.64 772.54,-594.64 772.54,4 -4,4"/>
<g id="clust1" class="cluster">
<title>cluster_boundary_DataStorageBoundary_f2eb7a3ff7</title>
<polygon fill="none" stroke="#ee2c2c" stroke-dasharray="5,2" points="61,-29.06 61,-101.06 257,-101.06 257,-29.06 61,-29.06"/>
<text xml:space="preserve" text-anchor="start" x="105.38" y="-88.56" font-family="Arial" font-style="italic" font-size="10.00">Data Storage\nBoundary</text>
</g>
<g id="clust2" class="cluster">
<title>cluster_boundary_WebServerBoundary_579e9aae81</title>
<polygon fill="none" stroke="#ee2c2c" stroke-dasharray="5,2" points="261,-166.63 261,-483.76 452,-483.76 452,-166.63 261,-166.63"/>
<text xml:space="preserve" text-anchor="start" x="306.25" y="-471.26" font-family="Arial" font-style="italic" font-size="10.00">Web Server\nBoundary</text>
</g>
<!-- datastore_SupplierDB_2c440ebe53 -->
<g id="node1" class="node">
<title>datastore_SupplierDB_2c440ebe53</title>
<image xlink:href="C:\Users\blueb\AppData\Local\Python\pythoncore-3.14-64\Lib\site-packages\pytm\images\datastore_black.png" width="49.6px" height="36px" preserveAspectRatio="xMinYMin meet" x="197.2" y="-73.065"/>
<text xml:space="preserve" text-anchor="middle" x="160.88" y="-39.52" font-family="Arial" font-size="14.00">SupplierDB</text>
</g>
<!-- process_ApplicationHandlingLogic_d2006ce1bb -->
<g id="node3" class="node">
<title>process_ApplicationHandlingLogic_d2006ce1bb</title>
<ellipse fill="none" stroke="black" cx="379" cy="-239.78" rx="65.15" ry="65.15"/>
<text xml:space="preserve" text-anchor="middle" x="379" y="-242.23" font-family="Arial" font-size="14.00">Application</text>
<text xml:space="preserve" text-anchor="middle" x="379" y="-226.48" font-family="Arial" font-size="14.00">Handling Logic</text>
</g>
<!-- datastore_SupplierDB_2c440ebe53&#45;&gt;process_ApplicationHandlingLogic_d2006ce1bb -->
<g id="edge8" class="edge">
<title>datastore_SupplierDB_2c440ebe53&#45;&gt;process_ApplicationHandlingLogic_d2006ce1bb</title>
<path fill="none" stroke="black" d="M248.99,-58.69C287.89,-64.09 358.47,-80.3 390,-128.13 397.39,-139.34 399.95,-152.62 399.76,-166.02"/>
<polygon fill="black" stroke="black" points="396.29,-165.54 399.11,-175.75 403.27,-166.01 396.29,-165.54"/>
<text xml:space="preserve" text-anchor="middle" x="438.3" y="-145.23" font-family="Arial" font-size="12.00">Fetch Supplier</text>
<text xml:space="preserve" text-anchor="middle" x="438.3" y="-130.98" font-family="Arial" font-size="12.00">Records</text>
</g>
<!-- datastore_FileStorage_0291419f72 -->
<g id="node2" class="node">
<title>datastore_FileStorage_0291419f72</title>
<image xlink:href="C:\Users\blueb\AppData\Local\Python\pythoncore-3.14-64\Lib\site-packages\pytm\images\datastore_black.png" width="49.6px" height="36px" preserveAspectRatio="xMinYMin meet" x="71.2" y="-73.065"/>
<text xml:space="preserve" text-anchor="middle" x="34.5" y="-75.52" font-family="Arial" font-size="14.00">FileStorage</text>
</g>
<!-- process_ApplicationHandlingLogic_d2006ce1bb&#45;&gt;datastore_SupplierDB_2c440ebe53 -->
<g id="edge3" class="edge">
<title>process_ApplicationHandlingLogic_d2006ce1bb&#45;&gt;datastore_SupplierDB_2c440ebe53</title>
<path fill="none" stroke="black" d="M313.43,-237.65C253.82,-232.71 168.89,-215 126.5,-156.63 119.06,-146.38 120.07,-139.04 126.5,-128.13 134.88,-113.9 145.44,-119.56 159,-110.13 171.79,-101.24 185.02,-90.21 196.02,-80.44"/>
<polygon fill="black" stroke="black" points="198.13,-83.26 203.2,-73.96 193.44,-78.07 198.13,-83.26"/>
<text xml:space="preserve" text-anchor="middle" x="164.75" y="-145.23" font-family="Arial" font-size="12.00">Store Pending</text>
<text xml:space="preserve" text-anchor="middle" x="164.75" y="-130.98" font-family="Arial" font-size="12.00">Profile</text>
</g>
<!-- process_ApplicationHandlingLogic_d2006ce1bb&#45;&gt;datastore_SupplierDB_2c440ebe53 -->
<g id="edge6" class="edge">
<title>process_ApplicationHandlingLogic_d2006ce1bb&#45;&gt;datastore_SupplierDB_2c440ebe53</title>
<path fill="none" stroke="black" d="M326.25,-200.79C310.3,-187.85 293.46,-172.59 280,-156.63 260.97,-134.06 244.73,-104.4 234.31,-83.15"/>
<polygon fill="black" stroke="black" points="237.53,-81.77 230.07,-74.25 231.22,-84.78 237.53,-81.77"/>
<text xml:space="preserve" text-anchor="middle" x="328" y="-145.23" font-family="Arial" font-size="12.00">Update Certificate</text>
<text xml:space="preserve" text-anchor="middle" x="328" y="-130.98" font-family="Arial" font-size="12.00">Link</text>
</g>
<!-- actor_NetworkManager_88f2d9c06f -->
<g id="node6" class="node">
<title>actor_NetworkManager_88f2d9c06f</title>
<polygon fill="none" stroke="black" points="744.07,-110.13 633.93,-110.13 633.93,0 744.07,0 744.07,-110.13"/>
<text xml:space="preserve" text-anchor="middle" x="689" y="-49.64" font-family="Arial" font-size="14.00">Network Manager</text>
</g>
<!-- process_ApplicationHandlingLogic_d2006ce1bb&#45;&gt;actor_NetworkManager_88f2d9c06f -->
<g id="edge9" class="edge">
<title>process_ApplicationHandlingLogic_d2006ce1bb&#45;&gt;actor_NetworkManager_88f2d9c06f</title>
<path fill="none" stroke="black" d="M434.78,-205.9C487.9,-174.59 567.83,-127.48 623.85,-94.47"/>
<polygon fill="black" stroke="black" points="625.53,-97.54 632.36,-89.45 621.97,-91.51 625.53,-97.54"/>
<text xml:space="preserve" text-anchor="middle" x="591.77" y="-145.23" font-family="Arial" font-size="12.00">Application</text>
<text xml:space="preserve" text-anchor="middle" x="591.77" y="-130.98" font-family="Arial" font-size="12.00">Dashboard</text>
</g>
<!-- process_FileUploadService_f8af758679 -->
<g id="node4" class="node">
<title>process_FileUploadService_f8af758679</title>
<ellipse fill="none" stroke="black" cx="319" cy="-405.47" rx="50.3" ry="50.3"/>
<text xml:space="preserve" text-anchor="middle" x="319" y="-407.92" font-family="Arial" font-size="14.00">File Upload</text>
<text xml:space="preserve" text-anchor="middle" x="319" y="-392.17" font-family="Arial" font-size="14.00">Service</text>
</g>
<!-- process_FileUploadService_f8af758679&#45;&gt;datastore_FileStorage_0291419f72 -->
<g id="edge4" class="edge">
<title>process_FileUploadService_f8af758679&#45;&gt;datastore_FileStorage_0291419f72</title>
<path fill="none" stroke="black" d="M277.09,-377.03C251.01,-358.65 217.87,-332.77 193.25,-304.92 142.15,-247.12 126.4,-230.15 103,-156.63 95.49,-133.04 94.14,-104.82 94.44,-84.28"/>
<polygon fill="black" stroke="black" points="97.94,-84.5 94.74,-74.4 90.94,-84.29 97.94,-84.5"/>
<text xml:space="preserve" text-anchor="middle" x="235.62" y="-242.63" font-family="Arial" font-size="12.00">Save Certificate</text>
<text xml:space="preserve" text-anchor="middle" x="235.62" y="-228.38" font-family="Arial" font-size="12.00">Files</text>
</g>
<!-- process_FileUploadService_f8af758679&#45;&gt;process_ApplicationHandlingLogic_d2006ce1bb -->
<g id="edge5" class="edge">
<title>process_FileUploadService_f8af758679&#45;&gt;process_ApplicationHandlingLogic_d2006ce1bb</title>
<path fill="none" stroke="black" d="M336.03,-358C341.27,-343.71 347.16,-327.65 352.86,-312.1"/>
<polygon fill="black" stroke="black" points="356.09,-313.46 356.24,-302.87 349.51,-311.05 356.09,-313.46"/>
<text xml:space="preserve" text-anchor="middle" x="398.58" y="-325.77" font-family="Arial" font-size="12.00">File Reference URI</text>
</g>
<!-- actor_Supplier_acf3059e70 -->
<g id="node5" class="node">
<title>actor_Supplier_acf3059e70</title>
<polygon fill="none" stroke="black" points="442.19,-590.64 389.81,-590.64 389.81,-538.26 442.19,-538.26 442.19,-590.64"/>
<text xml:space="preserve" text-anchor="middle" x="416" y="-559.03" font-family="Arial" font-size="14.00">Supplier</text>
</g>
<!-- actor_Supplier_acf3059e70&#45;&gt;process_ApplicationHandlingLogic_d2006ce1bb -->
<g id="edge1" class="edge">
<title>actor_Supplier_acf3059e70&#45;&gt;process_ApplicationHandlingLogic_d2006ce1bb</title>
<path fill="none" stroke="black" d="M442.6,-546.77C451.39,-539.76 460.15,-530.77 465,-520.26 501.76,-440.62 503.18,-403.27 468,-322.92 461.82,-308.82 451.9,-296.06 440.88,-285.03"/>
<polygon fill="black" stroke="black" points="443.47,-282.67 433.79,-278.36 438.67,-287.76 443.47,-282.67"/>
<text xml:space="preserve" text-anchor="middle" x="543.75" y="-408.32" font-family="Arial" font-size="12.00">Submit Application</text>
<text xml:space="preserve" text-anchor="middle" x="543.75" y="-394.07" font-family="Arial" font-size="12.00">Data</text>
</g>
<!-- actor_Supplier_acf3059e70&#45;&gt;process_FileUploadService_f8af758679 -->
<g id="edge2" class="edge">
<title>actor_Supplier_acf3059e70&#45;&gt;process_FileUploadService_f8af758679</title>
<path fill="none" stroke="black" d="M400.2,-537.88C386.96,-516.45 367.62,-485.16 351.14,-458.49"/>
<polygon fill="black" stroke="black" points="354.25,-456.85 346.01,-450.19 348.29,-460.53 354.25,-456.85"/>
<text xml:space="preserve" text-anchor="middle" x="417.34" y="-508.86" font-family="Arial" font-size="12.00">Upload</text>
<text xml:space="preserve" text-anchor="middle" x="417.34" y="-494.61" font-family="Arial" font-size="12.00">Certificates</text>
</g>
<!-- actor_NetworkManager_88f2d9c06f&#45;&gt;process_ApplicationHandlingLogic_d2006ce1bb -->
<g id="edge7" class="edge">
<title>actor_NetworkManager_88f2d9c06f&#45;&gt;process_ApplicationHandlingLogic_d2006ce1bb</title>
<path fill="none" stroke="black" d="M696.69,-110.38C696.2,-126.8 692.5,-143.85 682,-156.63 653.33,-191.52 534.83,-215.66 454.79,-228.35"/>
<polygon fill="black" stroke="black" points="454.61,-224.84 445.27,-229.83 455.69,-231.75 454.61,-224.84"/>
<text xml:space="preserve" text-anchor="middle" x="731.41" y="-145.23" font-family="Arial" font-size="12.00">View Pending</text>
<text xml:space="preserve" text-anchor="middle" x="731.41" y="-130.98" font-family="Arial" font-size="12.00">Applications</text>
</g>
</g>
</svg>
