<?xml version="1.0" encoding="UTF-8" standalone="no"?>
<!DOCTYPE svg PUBLIC "-//W3C//DTD SVG 1.1//EN"
 "http://www.w3.org/Graphics/SVG/1.1/DTD/svg11.dtd">
<!-- Generated by graphviz version 14.1.5 (20260411.2331)
 -->
<!-- Title: tm Pages: 1 -->
<svg width="972pt" height="511pt"
 viewBox="0.00 0.00 972.00 511.00" xmlns="http://www.w3.org/2000/svg" xmlns:xlink="http://www.w3.org/1999/xlink">
<g id="graph0" class="graph" transform="scale(1 1) rotate(0) translate(4 507.22)">
<title>tm</title>
<polygon fill="white" stroke="none" points="-4,4 -4,-507.22 968.1,-507.22 968.1,4 -4,4"/>
<g id="clust1" class="cluster">
<title>cluster_boundary_UsersWebServerBoundary_f2eb7a3ff7</title>
<polygon fill="none" stroke="#ee2c2c" stroke-dasharray="5,2" points="425,-275.82 425,-495.22 577,-495.22 577,-275.82 425,-275.82"/>
<text xml:space="preserve" text-anchor="start" x="433.12" y="-482.72" font-family="Arial" font-style="italic" font-size="10.00">Users / Web Server\nBoundary</text>
</g>
<g id="clust2" class="cluster">
<title>cluster_boundary_WebServerDatabaseBoundary_d2006ce1bb</title>
<polygon fill="none" stroke="#ee2c2c" stroke-dasharray="5,2" points="8,-8 8,-243.57 225,-243.57 225,-8 8,-8"/>
<text xml:space="preserve" text-anchor="start" x="40.75" y="-231.07" font-family="Arial" font-style="italic" font-size="10.00">Web Server /\nDatabase Boundary</text>
</g>
<!-- process_CantinasApp_f8af758679 -->
<g id="node1" class="node">
<title>process_CantinasApp_f8af758679</title>
<ellipse fill="none" stroke="black" cx="512" cy="-332.4" rx="48.58" ry="48.58"/>
<text xml:space="preserve" text-anchor="middle" x="512" y="-326.97" font-family="Arial" font-size="14.00">Cantinas App</text>
</g>
<!-- process_CantinasAppDatabase_2c440ebe53 -->
<g id="node3" class="node">
<title>process_CantinasAppDatabase_2c440ebe53</title>
<ellipse fill="none" stroke="black" cx="124" cy="-158.91" rx="56.66" ry="56.66"/>
<text xml:space="preserve" text-anchor="middle" x="124" y="-161.36" font-family="Arial" font-size="14.00">CantinasApp</text>
<text xml:space="preserve" text-anchor="middle" x="124" y="-145.61" font-family="Arial" font-size="14.00">Database</text>
</g>
<!-- process_CantinasApp_f8af758679&#45;&gt;process_CantinasAppDatabase_2c440ebe53 -->
<g id="edge8" class="edge">
<title>process_CantinasApp_f8af758679&#45;&gt;process_CantinasAppDatabase_2c440ebe53</title>
<path fill="none" stroke="black" d="M463.27,-328.38C346.11,-320.64 56.18,-298.36 27.75,-265.82 5.8,-240.7 33.34,-212.8 64.5,-191.95"/>
<polygon fill="black" stroke="black" points="65.99,-195.15 72.52,-186.8 62.21,-189.26 65.99,-195.15"/>
<text xml:space="preserve" text-anchor="middle" x="72.38" y="-254.42" font-family="Arial" font-size="12.00">SQL Query Calls</text>
</g>
<!-- actor_Administrator_acf3059e70 -->
<g id="node5" class="node">
<title>actor_Administrator_acf3059e70</title>
<polygon fill="none" stroke="black" points="472.56,-200.48 389.44,-200.48 389.44,-117.35 472.56,-117.35 472.56,-200.48"/>
<text xml:space="preserve" text-anchor="middle" x="431" y="-153.49" font-family="Arial" font-size="14.00">Administrator</text>
</g>
<!-- process_CantinasApp_f8af758679&#45;&gt;actor_Administrator_acf3059e70 -->
<g id="edge2" class="edge">
<title>process_CantinasApp_f8af758679&#45;&gt;actor_Administrator_acf3059e70</title>
<path fill="none" stroke="black" d="M464.8,-319.07C437.88,-309.36 406.38,-292.82 390.25,-265.82 380.11,-248.85 384.19,-228.9 392.89,-210.93"/>
<polygon fill="black" stroke="black" points="395.91,-212.69 397.58,-202.22 389.75,-209.36 395.91,-212.69"/>
<text xml:space="preserve" text-anchor="middle" x="420.62" y="-254.42" font-family="Arial" font-size="12.00">Responses</text>
</g>
<!-- actor_Supplier_88f2d9c06f -->
<g id="node6" class="node">
<title>actor_Supplier_88f2d9c06f</title>
<polygon fill="none" stroke="black" points="618.19,-185.1 565.81,-185.1 565.81,-132.72 618.19,-132.72 618.19,-185.1"/>
<text xml:space="preserve" text-anchor="middle" x="592" y="-153.49" font-family="Arial" font-size="14.00">Supplier</text>
</g>
<!-- process_CantinasApp_f8af758679&#45;&gt;actor_Supplier_88f2d9c06f -->
<g id="edge4" class="edge">
<title>process_CantinasApp_f8af758679&#45;&gt;actor_Supplier_88f2d9c06f</title>
<path fill="none" stroke="black" d="M532.19,-288.12C545.51,-259.57 562.75,-222.6 575.3,-195.71"/>
<polygon fill="black" stroke="black" points="578.33,-197.49 579.39,-186.94 571.99,-194.53 578.33,-197.49"/>
<text xml:space="preserve" text-anchor="middle" x="577.59" y="-254.42" font-family="Arial" font-size="12.00">Responses</text>
</g>
<!-- actor_Dietitian_579e9aae81 -->
<g id="node7" class="node">
<title>actor_Dietitian_579e9aae81</title>
<polygon fill="none" stroke="black" points="936.82,-184.73 885.18,-184.73 885.18,-133.1 936.82,-133.1 936.82,-184.73"/>
<text xml:space="preserve" text-anchor="middle" x="911" y="-153.49" font-family="Arial" font-size="14.00">Dietitian</text>
</g>
<!-- process_CantinasApp_f8af758679&#45;&gt;actor_Dietitian_579e9aae81 -->
<g id="edge6" class="edge">
<title>process_CantinasApp_f8af758679&#45;&gt;actor_Dietitian_579e9aae81</title>
<path fill="none" stroke="black" d="M558.91,-318.51C599.98,-306.64 660.91,-287.6 712,-265.82 770.99,-240.67 835.99,-204.33 875.14,-181.42"/>
<polygon fill="black" stroke="black" points="876.85,-184.48 883.69,-176.39 873.3,-178.45 876.85,-184.48"/>
<text xml:space="preserve" text-anchor="middle" x="770.34" y="-254.42" font-family="Arial" font-size="12.00">Responses</text>
</g>
<!-- datastore_WebPagesOnDisk_0291419f72 -->
<g id="node2" class="node">
<title>datastore_WebPagesOnDisk_0291419f72</title>
<image xlink:href="C:\Users\blueb\AppData\Local\Python\pythoncore-3.14-64\Lib\site-packages\pytm\images\datastore_black.png" width="49.6px" height="36px" preserveAspectRatio="xMinYMin meet" x="487.2" y="-467.221"/>
<text xml:space="preserve" text-anchor="middle" x="423.88" y="-433.67" font-family="Arial" font-size="14.00">Web Pages On Disk</text>
</g>
<!-- datastore_WebPagesOnDisk_0291419f72&#45;&gt;process_CantinasApp_f8af758679 -->
<g id="edge7" class="edge">
<title>datastore_WebPagesOnDisk_0291419f72&#45;&gt;process_CantinasApp_f8af758679</title>
<path fill="none" stroke="black" d="M512,-431.28C512,-420.89 512,-406.91 512,-392.77"/>
<polygon fill="black" stroke="black" points="515.5,-392.97 512,-382.97 508.5,-392.97 515.5,-392.97"/>
<text xml:space="preserve" text-anchor="middle" x="529.25" y="-401.82" font-family="Arial" font-size="12.00">Pages</text>
</g>
<!-- process_CantinasAppDatabase_2c440ebe53&#45;&gt;process_CantinasApp_f8af758679 -->
<g id="edge9" class="edge">
<title>process_CantinasAppDatabase_2c440ebe53&#45;&gt;process_CantinasApp_f8af758679</title>
<path fill="none" stroke="black" d="M173.97,-185.76C217.69,-208.01 283.15,-240.45 341.5,-265.82 379.16,-282.2 422.34,-298.78 455.83,-311.18"/>
<polygon fill="black" stroke="black" points="454.33,-314.35 464.92,-314.53 456.74,-307.79 454.33,-314.35"/>
<text xml:space="preserve" text-anchor="middle" x="354.25" y="-254.42" font-family="Arial" font-size="12.00">Data</text>
</g>
<!-- datastore_DatabaseFiles_c76a0a7067 -->
<g id="node4" class="node">
<title>datastore_DatabaseFiles_c76a0a7067</title>
<image xlink:href="C:\Users\blueb\AppData\Local\Python\pythoncore-3.14-64\Lib\site-packages\pytm\images\datastore_black.png" width="49.6px" height="36px" preserveAspectRatio="xMinYMin meet" x="114.2" y="-52"/>
<text xml:space="preserve" text-anchor="middle" x="67" y="-54.45" font-family="Arial" font-size="14.00">Database Files</text>
</g>
<!-- process_CantinasAppDatabase_2c440ebe53&#45;&gt;datastore_DatabaseFiles_c76a0a7067 -->
<g id="edge10" class="edge">
<title>process_CantinasAppDatabase_2c440ebe53&#45;&gt;datastore_DatabaseFiles_c76a0a7067</title>
<path fill="none" stroke="black" d="M83.57,-118.68C72.68,-103.38 66.19,-85.76 75.5,-70 81.45,-59.92 91.46,-52.54 101.79,-47.24"/>
<polygon fill="black" stroke="black" points="103.03,-50.52 110.71,-43.22 100.16,-44.14 103.03,-50.52"/>
<text xml:space="preserve" text-anchor="middle" x="88.25" y="-72.85" font-family="Arial" font-size="12.00">Data</text>
</g>
<!-- datastore_DatabaseFiles_c76a0a7067&#45;&gt;process_CantinasAppDatabase_2c440ebe53 -->
<g id="edge11" class="edge">
<title>datastore_DatabaseFiles_c76a0a7067&#45;&gt;process_CantinasAppDatabase_2c440ebe53</title>
<path fill="none" stroke="black" d="M136.95,-51.83C135.67,-62.28 133.94,-76.45 132.16,-91.03"/>
<polygon fill="black" stroke="black" points="128.72,-90.36 130.98,-100.71 135.67,-91.2 128.72,-90.36"/>
<text xml:space="preserve" text-anchor="middle" x="147.32" y="-72.85" font-family="Arial" font-size="12.00">Data</text>
</g>
<!-- actor_Administrator_acf3059e70&#45;&gt;process_CantinasApp_f8af758679 -->
<g id="edge1" class="edge">
<title>actor_Administrator_acf3059e70&#45;&gt;process_CantinasApp_f8af758679</title>
<path fill="none" stroke="black" d="M447.26,-200.82C455.43,-220.66 465.75,-244.7 476,-265.82 478.2,-270.35 480.55,-275 482.97,-279.65"/>
<polygon fill="black" stroke="black" points="479.84,-281.21 487.61,-288.41 486.02,-277.93 479.84,-281.21"/>
<text xml:space="preserve" text-anchor="middle" x="501.5" y="-254.42" font-family="Arial" font-size="12.00">Requests</text>
</g>
<!-- actor_Supplier_88f2d9c06f&#45;&gt;process_CantinasApp_f8af758679 -->
<g id="edge3" class="edge">
<title>actor_Supplier_88f2d9c06f&#45;&gt;process_CantinasApp_f8af758679</title>
<path fill="none" stroke="black" d="M616.43,-185.25C634.63,-207.32 653.81,-239.77 638,-265.82 623.05,-290.45 595.51,-306.25 569.98,-316.16"/>
<polygon fill="black" stroke="black" points="568.85,-312.85 560.63,-319.54 571.23,-319.43 568.85,-312.85"/>
<text xml:space="preserve" text-anchor="middle" x="668.68" y="-254.42" font-family="Arial" font-size="12.00">Requests</text>
</g>
<!-- actor_Dietitian_579e9aae81&#45;&gt;process_CantinasApp_f8af758679 -->
<g id="edge5" class="edge">
<title>actor_Dietitian_579e9aae81&#45;&gt;process_CantinasApp_f8af758679</title>
<path fill="none" stroke="black" d="M917.3,-185.1C921.62,-208.95 923.54,-244.23 904,-265.82 860.63,-313.74 670.83,-326.64 572.12,-330.12"/>
<polygon fill="black" stroke="black" points="572.23,-326.61 562.35,-330.44 572.46,-333.61 572.23,-326.61"/>
<text xml:space="preserve" text-anchor="middle" x="938.6" y="-254.42" font-family="Arial" font-size="12.00">Requests</text>
</g>
</g>
</svg>
