<?xml version="1.0" encoding="UTF-8" standalone="no"?>
<!DOCTYPE svg PUBLIC "-//W3C//DTD SVG 1.1//EN"
 "http://www.w3.org/Graphics/SVG/1.1/DTD/svg11.dtd">
<!-- Generated by graphviz version 14.1.5 (20260411.2331)
 -->
<!-- Title: tm Pages: 1 -->
<svg width="622pt" height="714pt"
 viewBox="0.00 0.00 622.00 714.00" xmlns="http://www.w3.org/2000/svg" xmlns:xlink="http://www.w3.org/1999/xlink">
<g id="graph0" class="graph" transform="scale(1 1) rotate(0) translate(4 710.27)">
<title>tm</title>
<polygon fill="white" stroke="none" points="-4,4 -4,-710.27 618.41,-710.27 618.41,4 -4,4"/>
<g id="clust1" class="cluster">
<title>cluster_boundary_UserWebServerBoundary_88f2d9c06f</title>
<polygon fill="none" stroke="#ee2c2c" stroke-dasharray="5,2" points="8,-350.53 8,-698.27 368,-698.27 368,-350.53 8,-350.53"/>
<text xml:space="preserve" text-anchor="start" x="122.75" y="-685.77" font-family="Arial" font-style="italic" font-size="10.00">User / Web Server\nBoundary</text>
</g>
<g id="clust2" class="cluster">
<title>cluster_boundary_WebServerDatabaseBoundary_579e9aae81</title>
<polygon fill="none" stroke="#ee2c2c" stroke-dasharray="5,2" points="76,-8 76,-304.03 293,-304.03 293,-8 76,-8"/>
<text xml:space="preserve" text-anchor="start" x="108.75" y="-291.53" font-family="Arial" font-style="italic" font-size="10.00">Web Server /\nDatabase Boundary</text>
</g>
<!-- process_Cantina_f2eb7a3ff7 -->
<g id="node1" class="node">
<title>process_Cantina_f2eb7a3ff7</title>
<ellipse fill="none" stroke="black" cx="295" cy="-555.17" rx="28.85" ry="28.85"/>
<text xml:space="preserve" text-anchor="middle" x="295" y="-549.74" font-family="Arial" font-size="14.00">Cantina</text>
</g>
<!-- process_LoginProcess_d2006ce1bb -->
<g id="node2" class="node">
<title>process_LoginProcess_d2006ce1bb</title>
<ellipse fill="none" stroke="black" cx="136" cy="-410.17" rx="51.64" ry="51.64"/>
<text xml:space="preserve" text-anchor="middle" x="136" y="-404.75" font-family="Arial" font-size="14.00">Login Process</text>
</g>
<!-- process_Cantina_f2eb7a3ff7&#45;&gt;process_LoginProcess_d2006ce1bb -->
<g id="edge4" class="edge">
<title>process_Cantina_f2eb7a3ff7&#45;&gt;process_LoginProcess_d2006ce1bb</title>
<path fill="none" stroke="black" d="M265.93,-552.51C211.83,-548.74 98.97,-537.5 75.25,-508.31 60.78,-490.51 71.68,-469.03 88.02,-450.8"/>
<polygon fill="black" stroke="black" points="90.38,-453.4 94.8,-443.77 85.34,-448.55 90.38,-453.4"/>
<text xml:space="preserve" text-anchor="middle" x="125.12" y="-489.79" font-family="Arial" font-size="12.00">AuthenticateUser()</text>
</g>
<!-- actor_Users_acf3059e70 -->
<g id="node6" class="node">
<title>actor_Users_acf3059e70</title>
<polygon fill="none" stroke="black" points="538.07,-429.24 499.94,-429.24 499.94,-391.11 538.07,-391.11 538.07,-429.24"/>
<text xml:space="preserve" text-anchor="middle" x="519" y="-404.75" font-family="Arial" font-size="14.00">Users</text>
</g>
<!-- process_Cantina_f2eb7a3ff7&#45;&gt;actor_Users_acf3059e70 -->
<g id="edge2" class="edge">
<title>process_Cantina_f2eb7a3ff7&#45;&gt;actor_Users_acf3059e70</title>
<path fill="none" stroke="black" d="M318.97,-538.87C360.44,-512.4 445.38,-458.17 490.06,-429.64"/>
<polygon fill="black" stroke="black" points="491.91,-432.62 498.46,-424.29 488.14,-426.72 491.91,-432.62"/>
<text xml:space="preserve" text-anchor="middle" x="450.88" y="-489.79" font-family="Arial" font-size="12.00">Login Response</text>
</g>
<!-- process_LoginProcess_d2006ce1bb&#45;&gt;process_Cantina_f2eb7a3ff7 -->
<g id="edge5" class="edge">
<title>process_LoginProcess_d2006ce1bb&#45;&gt;process_Cantina_f2eb7a3ff7</title>
<path fill="none" stroke="black" d="M174,-445.34C202.1,-470.62 239.81,-504.53 265.62,-527.75"/>
<polygon fill="black" stroke="black" points="262.98,-530.08 272.76,-534.17 267.67,-524.88 262.98,-530.08"/>
<text xml:space="preserve" text-anchor="middle" x="291.2" y="-496.91" font-family="Arial" font-size="12.00">Authenticate User</text>
<text xml:space="preserve" text-anchor="middle" x="291.2" y="-482.66" font-family="Arial" font-size="12.00">Result</text>
</g>
<!-- process_CollegeCantinaAppDatabase_2c440ebe53 -->
<g id="node4" class="node">
<title>process_CollegeCantinaAppDatabase_2c440ebe53</title>
<ellipse fill="none" stroke="black" cx="184" cy="-189.14" rx="86.89" ry="86.89"/>
<text xml:space="preserve" text-anchor="middle" x="184" y="-191.59" font-family="Arial" font-size="14.00">College CantinaApp</text>
<text xml:space="preserve" text-anchor="middle" x="184" y="-175.84" font-family="Arial" font-size="14.00">Database</text>
</g>
<!-- process_LoginProcess_d2006ce1bb&#45;&gt;process_CollegeCantinaAppDatabase_2c440ebe53 -->
<g id="edge6" class="edge">
<title>process_LoginProcess_d2006ce1bb&#45;&gt;process_CollegeCantinaAppDatabase_2c440ebe53</title>
<path fill="none" stroke="black" d="M92.76,-381.37C70.4,-363.22 49.86,-338.11 60.75,-312.03 70.69,-288.21 87.8,-266.68 106.16,-248.57"/>
<polygon fill="black" stroke="black" points="108.17,-251.49 112.99,-242.06 103.34,-246.42 108.17,-251.49"/>
<text xml:space="preserve" text-anchor="middle" x="108.38" y="-329.13" font-family="Arial" font-size="12.00">Authenticate User</text>
<text xml:space="preserve" text-anchor="middle" x="108.38" y="-314.88" font-family="Arial" font-size="12.00">SQL Query</text>
</g>
<!-- datastore_WebPages_f8af758679 -->
<g id="node3" class="node">
<title>datastore_WebPages_f8af758679</title>
<image xlink:href="C:\Users\blueb\AppData\Local\Python\pythoncore-3.14-64\Lib\site-packages\pytm\images\datastore_black.png" width="49.6px" height="36px" preserveAspectRatio="xMinYMin meet" x="270.2" y="-670.273"/>
<text xml:space="preserve" text-anchor="middle" x="233.12" y="-636.72" font-family="Arial" font-size="14.00">Web Pages</text>
</g>
<!-- datastore_WebPages_f8af758679&#45;&gt;process_Cantina_f2eb7a3ff7 -->
<g id="edge3" class="edge">
<title>datastore_WebPages_f8af758679&#45;&gt;process_Cantina_f2eb7a3ff7</title>
<path fill="none" stroke="black" d="M295,-634.71C295,-623.9 295,-609.3 295,-595.63"/>
<polygon fill="black" stroke="black" points="298.5,-595.98 295,-585.98 291.5,-595.98 298.5,-595.98"/>
<text xml:space="preserve" text-anchor="middle" x="312.25" y="-604.87" font-family="Arial" font-size="12.00">Pages</text>
</g>
<!-- process_CollegeCantinaAppDatabase_2c440ebe53&#45;&gt;process_LoginProcess_d2006ce1bb -->
<g id="edge7" class="edge">
<title>process_CollegeCantinaAppDatabase_2c440ebe53&#45;&gt;process_LoginProcess_d2006ce1bb</title>
<path fill="none" stroke="black" d="M181.44,-276.24C179.33,-297.54 175.8,-320.09 170,-340.53 168.71,-345.06 167.13,-349.66 165.36,-354.21"/>
<polygon fill="black" stroke="black" points="162.19,-352.73 161.53,-363.3 168.64,-355.45 162.19,-352.73"/>
<text xml:space="preserve" text-anchor="middle" x="224.44" y="-329.13" font-family="Arial" font-size="12.00">Authenticate User</text>
<text xml:space="preserve" text-anchor="middle" x="224.44" y="-314.88" font-family="Arial" font-size="12.00">SQL Query Result</text>
</g>
<!-- datastore_DatabaseFiles_0291419f72 -->
<g id="node5" class="node">
<title>datastore_DatabaseFiles_0291419f72</title>
<image xlink:href="C:\Users\blueb\AppData\Local\Python\pythoncore-3.14-64\Lib\site-packages\pytm\images\datastore_black.png" width="49.6px" height="36px" preserveAspectRatio="xMinYMin meet" x="182.2" y="-52"/>
<text xml:space="preserve" text-anchor="middle" x="135" y="-54.45" font-family="Arial" font-size="14.00">Database Files</text>
</g>
<!-- process_CollegeCantinaAppDatabase_2c440ebe53&#45;&gt;datastore_DatabaseFiles_0291419f72 -->
<g id="edge8" class="edge">
<title>process_CollegeCantinaAppDatabase_2c440ebe53&#45;&gt;datastore_DatabaseFiles_0291419f72</title>
<path fill="none" stroke="black" d="M139.16,-114.23C135.28,-99.09 135.45,-83.63 143.5,-70 149.45,-59.92 159.46,-52.54 169.79,-47.24"/>
<polygon fill="black" stroke="black" points="171.03,-50.52 178.71,-43.22 168.16,-44.14 171.03,-50.52"/>
<text xml:space="preserve" text-anchor="middle" x="156.25" y="-72.85" font-family="Arial" font-size="12.00">Data</text>
</g>
<!-- datastore_DatabaseFiles_0291419f72&#45;&gt;process_CollegeCantinaAppDatabase_2c440ebe53 -->
<g id="edge9" class="edge">
<title>datastore_DatabaseFiles_0291419f72&#45;&gt;process_CollegeCantinaAppDatabase_2c440ebe53</title>
<path fill="none" stroke="black" d="M204.47,-51.84C202.92,-62.19 200.78,-76.39 198.48,-91.73"/>
<polygon fill="black" stroke="black" points="195.03,-91.16 197,-101.56 201.95,-92.19 195.03,-91.16"/>
<text xml:space="preserve" text-anchor="middle" x="214.19" y="-72.85" font-family="Arial" font-size="12.00">Data</text>
</g>
<!-- actor_Users_acf3059e70&#45;&gt;process_Cantina_f2eb7a3ff7 -->
<g id="edge1" class="edge">
<title>actor_Users_acf3059e70&#45;&gt;process_Cantina_f2eb7a3ff7</title>
<path fill="none" stroke="black" d="M527.16,-429.55C535.27,-450.97 544.13,-486.23 526,-508.31 502.35,-537.13 395.19,-548.16 335.49,-552.12"/>
<polygon fill="black" stroke="black" points="335.49,-548.61 325.73,-552.73 335.93,-555.6 335.49,-548.61"/>
<text xml:space="preserve" text-anchor="middle" x="575.41" y="-489.79" font-family="Arial" font-size="12.00">Login Request</text>
</g>
</g>
</svg>
